<mxfile host="app.diagrams.net" modified="2020-11-05T09:15:19.278Z" agent="5.0 (Macintosh; Intel Mac OS X 10_15_7) AppleWebKit/605.1.15 (KHTML, like Gecko) Version/14.0 Safari/605.1.15" etag="evsWha9IYgdHi1rGDiST" version="13.8.7" type="github">
  <diagram id="TQBs-fIxCHHja5KSU6ci" name="Page-1">
    <mxGraphModel dx="946" dy="662" grid="1" gridSize="10" guides="1" tooltips="1" connect="1" arrows="1" fold="1" page="1" pageScale="1" pageWidth="827" pageHeight="1169" math="0" shadow="0">
      <root>
        <mxCell id="0" />
        <mxCell id="1" parent="0" />
        <mxCell id="XbdUIOKITNwZQ8Tn0T4e-13" style="edgeStyle=orthogonalEdgeStyle;rounded=0;orthogonalLoop=1;jettySize=auto;html=1;exitX=0;exitY=0.25;exitDx=0;exitDy=0;entryX=0.25;entryY=0;entryDx=0;entryDy=0;" parent="1" source="XbdUIOKITNwZQ8Tn0T4e-1" target="XbdUIOKITNwZQ8Tn0T4e-2" edge="1">
          <mxGeometry relative="1" as="geometry">
            <mxPoint x="160" y="380" as="targetPoint" />
          </mxGeometry>
        </mxCell>
        <mxCell id="XbdUIOKITNwZQ8Tn0T4e-14" value="2.定时拉取采购单" style="edgeLabel;html=1;align=center;verticalAlign=middle;resizable=0;points=[];" parent="XbdUIOKITNwZQ8Tn0T4e-13" vertex="1" connectable="0">
          <mxGeometry x="-0.4765" y="3" relative="1" as="geometry">
            <mxPoint as="offset" />
          </mxGeometry>
        </mxCell>
        <mxCell id="XbdUIOKITNwZQ8Tn0T4e-16" style="edgeStyle=orthogonalEdgeStyle;rounded=0;orthogonalLoop=1;jettySize=auto;html=1;exitX=1;exitY=0.25;exitDx=0;exitDy=0;entryX=0.75;entryY=0;entryDx=0;entryDy=0;" parent="1" source="XbdUIOKITNwZQ8Tn0T4e-1" target="XbdUIOKITNwZQ8Tn0T4e-3" edge="1">
          <mxGeometry relative="1" as="geometry">
            <mxPoint x="680" y="370" as="targetPoint" />
          </mxGeometry>
        </mxCell>
        <mxCell id="XbdUIOKITNwZQ8Tn0T4e-17" value="3.采购单发送京东" style="edgeLabel;html=1;align=center;verticalAlign=middle;resizable=0;points=[];" parent="XbdUIOKITNwZQ8Tn0T4e-16" vertex="1" connectable="0">
          <mxGeometry x="-0.6565" y="-1" relative="1" as="geometry">
            <mxPoint x="34" as="offset" />
          </mxGeometry>
        </mxCell>
        <mxCell id="XbdUIOKITNwZQ8Tn0T4e-22" style="edgeStyle=orthogonalEdgeStyle;rounded=0;orthogonalLoop=1;jettySize=auto;html=1;exitX=0;exitY=0.75;exitDx=0;exitDy=0;entryX=0.75;entryY=0;entryDx=0;entryDy=0;" parent="1" source="XbdUIOKITNwZQ8Tn0T4e-1" target="XbdUIOKITNwZQ8Tn0T4e-2" edge="1">
          <mxGeometry relative="1" as="geometry" />
        </mxCell>
        <mxCell id="XbdUIOKITNwZQ8Tn0T4e-23" value="5.采购结果返回" style="edgeLabel;html=1;align=center;verticalAlign=middle;resizable=0;points=[];" parent="XbdUIOKITNwZQ8Tn0T4e-22" vertex="1" connectable="0">
          <mxGeometry x="-0.4667" y="2" relative="1" as="geometry">
            <mxPoint x="-2" as="offset" />
          </mxGeometry>
        </mxCell>
        <mxCell id="XbdUIOKITNwZQ8Tn0T4e-1" value="点猫" style="rounded=0;whiteSpace=wrap;html=1;" parent="1" vertex="1">
          <mxGeometry x="350" y="140" width="120" height="60" as="geometry" />
        </mxCell>
        <mxCell id="XbdUIOKITNwZQ8Tn0T4e-2" value="金蝶" style="rounded=0;whiteSpace=wrap;html=1;" parent="1" vertex="1">
          <mxGeometry x="150" y="292" width="120" height="60" as="geometry" />
        </mxCell>
        <mxCell id="XbdUIOKITNwZQ8Tn0T4e-18" style="edgeStyle=orthogonalEdgeStyle;rounded=0;orthogonalLoop=1;jettySize=auto;html=1;exitX=0.5;exitY=0;exitDx=0;exitDy=0;entryX=1;entryY=0.75;entryDx=0;entryDy=0;" parent="1" source="XbdUIOKITNwZQ8Tn0T4e-3" target="XbdUIOKITNwZQ8Tn0T4e-1" edge="1">
          <mxGeometry relative="1" as="geometry">
            <mxPoint x="530" y="210" as="targetPoint" />
            <Array as="points">
              <mxPoint x="630" y="185" />
            </Array>
          </mxGeometry>
        </mxCell>
        <mxCell id="XbdUIOKITNwZQ8Tn0T4e-21" value="4.采购结果返回" style="edgeLabel;html=1;align=center;verticalAlign=middle;resizable=0;points=[];" parent="XbdUIOKITNwZQ8Tn0T4e-18" vertex="1" connectable="0">
          <mxGeometry x="0.7973" y="2" relative="1" as="geometry">
            <mxPoint x="53" as="offset" />
          </mxGeometry>
        </mxCell>
        <mxCell id="XbdUIOKITNwZQ8Tn0T4e-3" value="京东" style="rounded=0;whiteSpace=wrap;html=1;" parent="1" vertex="1">
          <mxGeometry x="570" y="292" width="120" height="60" as="geometry" />
        </mxCell>
        <mxCell id="XbdUIOKITNwZQ8Tn0T4e-12" style="edgeStyle=orthogonalEdgeStyle;rounded=0;orthogonalLoop=1;jettySize=auto;html=1;entryX=1;entryY=0.5;entryDx=0;entryDy=0;" parent="1" source="XbdUIOKITNwZQ8Tn0T4e-11" target="XbdUIOKITNwZQ8Tn0T4e-2" edge="1">
          <mxGeometry relative="1" as="geometry" />
        </mxCell>
        <mxCell id="XbdUIOKITNwZQ8Tn0T4e-15" value="1.手工录入采购单" style="edgeLabel;html=1;align=center;verticalAlign=middle;resizable=0;points=[];" parent="XbdUIOKITNwZQ8Tn0T4e-12" vertex="1" connectable="0">
          <mxGeometry x="-0.4" y="-1" relative="1" as="geometry">
            <mxPoint x="-20" y="1" as="offset" />
          </mxGeometry>
        </mxCell>
        <mxCell id="XbdUIOKITNwZQ8Tn0T4e-11" value="" style="shape=umlActor;verticalLabelPosition=bottom;verticalAlign=top;html=1;" parent="1" vertex="1">
          <mxGeometry x="399" y="292" width="30" height="60" as="geometry" />
        </mxCell>
        <mxCell id="XbdUIOKITNwZQ8Tn0T4e-24" style="edgeStyle=orthogonalEdgeStyle;rounded=0;orthogonalLoop=1;jettySize=auto;html=1;exitX=0;exitY=0.25;exitDx=0;exitDy=0;entryX=0.25;entryY=0;entryDx=0;entryDy=0;" parent="1" source="XbdUIOKITNwZQ8Tn0T4e-30" target="XbdUIOKITNwZQ8Tn0T4e-31" edge="1">
          <mxGeometry relative="1" as="geometry">
            <mxPoint x="154" y="945" as="targetPoint" />
          </mxGeometry>
        </mxCell>
        <mxCell id="XbdUIOKITNwZQ8Tn0T4e-25" value="1.生成出库单" style="edgeLabel;html=1;align=center;verticalAlign=middle;resizable=0;points=[];" parent="XbdUIOKITNwZQ8Tn0T4e-24" vertex="1" connectable="0">
          <mxGeometry x="-0.4765" y="3" relative="1" as="geometry">
            <mxPoint as="offset" />
          </mxGeometry>
        </mxCell>
        <mxCell id="XbdUIOKITNwZQ8Tn0T4e-26" style="edgeStyle=orthogonalEdgeStyle;rounded=0;orthogonalLoop=1;jettySize=auto;html=1;exitX=1;exitY=0.25;exitDx=0;exitDy=0;entryX=0.75;entryY=0;entryDx=0;entryDy=0;" parent="1" source="XbdUIOKITNwZQ8Tn0T4e-30" target="XbdUIOKITNwZQ8Tn0T4e-34" edge="1">
          <mxGeometry relative="1" as="geometry">
            <mxPoint x="674" y="935" as="targetPoint" />
          </mxGeometry>
        </mxCell>
        <mxCell id="XbdUIOKITNwZQ8Tn0T4e-27" value="3.出库单发送京东" style="edgeLabel;html=1;align=center;verticalAlign=middle;resizable=0;points=[];" parent="XbdUIOKITNwZQ8Tn0T4e-26" vertex="1" connectable="0">
          <mxGeometry x="-0.6565" y="-1" relative="1" as="geometry">
            <mxPoint x="40" as="offset" />
          </mxGeometry>
        </mxCell>
        <mxCell id="XbdUIOKITNwZQ8Tn0T4e-28" style="edgeStyle=orthogonalEdgeStyle;rounded=0;orthogonalLoop=1;jettySize=auto;html=1;exitX=0;exitY=0.75;exitDx=0;exitDy=0;entryX=0.75;entryY=0;entryDx=0;entryDy=0;" parent="1" source="XbdUIOKITNwZQ8Tn0T4e-30" target="XbdUIOKITNwZQ8Tn0T4e-31" edge="1">
          <mxGeometry relative="1" as="geometry" />
        </mxCell>
        <mxCell id="XbdUIOKITNwZQ8Tn0T4e-29" value="2.定时拉取出库单" style="edgeLabel;html=1;align=center;verticalAlign=middle;resizable=0;points=[];" parent="XbdUIOKITNwZQ8Tn0T4e-28" vertex="1" connectable="0">
          <mxGeometry x="-0.4667" y="2" relative="1" as="geometry">
            <mxPoint x="10" as="offset" />
          </mxGeometry>
        </mxCell>
        <mxCell id="XbdUIOKITNwZQ8Tn0T4e-35" style="edgeStyle=orthogonalEdgeStyle;rounded=0;orthogonalLoop=1;jettySize=auto;html=1;exitX=0.25;exitY=1;exitDx=0;exitDy=0;entryX=1;entryY=0.25;entryDx=0;entryDy=0;" parent="1" source="XbdUIOKITNwZQ8Tn0T4e-30" target="XbdUIOKITNwZQ8Tn0T4e-31" edge="1">
          <mxGeometry relative="1" as="geometry" />
        </mxCell>
        <mxCell id="XbdUIOKITNwZQ8Tn0T4e-36" value="5.出库结果返回" style="edgeLabel;html=1;align=center;verticalAlign=middle;resizable=0;points=[];" parent="XbdUIOKITNwZQ8Tn0T4e-35" vertex="1" connectable="0">
          <mxGeometry x="-0.6254" y="-1" relative="1" as="geometry">
            <mxPoint as="offset" />
          </mxGeometry>
        </mxCell>
        <mxCell id="XbdUIOKITNwZQ8Tn0T4e-30" value="点猫" style="rounded=0;whiteSpace=wrap;html=1;" parent="1" vertex="1">
          <mxGeometry x="344" y="705" width="120" height="60" as="geometry" />
        </mxCell>
        <mxCell id="XbdUIOKITNwZQ8Tn0T4e-31" value="金蝶" style="rounded=0;whiteSpace=wrap;html=1;" parent="1" vertex="1">
          <mxGeometry x="144" y="880" width="120" height="60" as="geometry" />
        </mxCell>
        <mxCell id="XbdUIOKITNwZQ8Tn0T4e-32" style="edgeStyle=orthogonalEdgeStyle;rounded=0;orthogonalLoop=1;jettySize=auto;html=1;exitX=0.5;exitY=0;exitDx=0;exitDy=0;entryX=1;entryY=0.75;entryDx=0;entryDy=0;" parent="1" source="XbdUIOKITNwZQ8Tn0T4e-34" target="XbdUIOKITNwZQ8Tn0T4e-30" edge="1">
          <mxGeometry relative="1" as="geometry">
            <mxPoint x="524" y="775" as="targetPoint" />
            <Array as="points">
              <mxPoint x="624" y="750" />
            </Array>
          </mxGeometry>
        </mxCell>
        <mxCell id="XbdUIOKITNwZQ8Tn0T4e-33" value="4.出库结果返回" style="edgeLabel;html=1;align=center;verticalAlign=middle;resizable=0;points=[];" parent="XbdUIOKITNwZQ8Tn0T4e-32" vertex="1" connectable="0">
          <mxGeometry x="0.7973" y="2" relative="1" as="geometry">
            <mxPoint x="57" as="offset" />
          </mxGeometry>
        </mxCell>
        <mxCell id="XbdUIOKITNwZQ8Tn0T4e-34" value="京东" style="rounded=0;whiteSpace=wrap;html=1;" parent="1" vertex="1">
          <mxGeometry x="564" y="880" width="120" height="60" as="geometry" />
        </mxCell>
        <mxCell id="XbdUIOKITNwZQ8Tn0T4e-38" value="采购流程" style="text;html=1;strokeColor=none;fillColor=none;align=center;verticalAlign=middle;whiteSpace=wrap;rounded=0;fontSize=16;" parent="1" vertex="1">
          <mxGeometry x="367" y="60" width="86" height="20" as="geometry" />
        </mxCell>
        <mxCell id="XbdUIOKITNwZQ8Tn0T4e-39" value="出库流程" style="text;html=1;strokeColor=none;fillColor=none;align=center;verticalAlign=middle;whiteSpace=wrap;rounded=0;fontSize=16;" parent="1" vertex="1">
          <mxGeometry x="366" y="640" width="76" height="20" as="geometry" />
        </mxCell>
        <mxCell id="XbdUIOKITNwZQ8Tn0T4e-41" value="业务人员" style="text;html=1;align=center;verticalAlign=middle;resizable=0;points=[];autosize=1;fontSize=12;" parent="1" vertex="1">
          <mxGeometry x="384" y="352" width="60" height="20" as="geometry" />
        </mxCell>
        <mxCell id="XbdUIOKITNwZQ8Tn0T4e-43" value="&lt;h1 style=&quot;font-size: 13px&quot;&gt;&lt;font style=&quot;font-size: 17px&quot;&gt;说明&lt;/font&gt;&lt;font style=&quot;font-size: 13px ; font-weight: normal&quot;&gt;（下划线加粗部分引用自 &quot; 金蝶云 WebAPI接口说明书_V4.0.docx &quot;）&lt;/font&gt;&lt;/h1&gt;&lt;p style=&quot;font-size: 13px&quot;&gt;2.定时拉取采购单，由点猫定时调用金蝶 &lt;u&gt;&lt;b&gt;表单数据查询接口&lt;/b&gt; &lt;/u&gt;完成。&lt;/p&gt;&lt;p style=&quot;font-size: 13px&quot;&gt;5.采购结果返回，由点猫调用金蝶？接口完成。（接口说明书里没找到，需要金蝶开发解答）&lt;font color=&quot;#ff0000&quot;&gt;？？？&lt;/font&gt;&lt;/p&gt;" style="text;html=1;strokeColor=none;fillColor=none;spacing=5;spacingTop=-20;whiteSpace=wrap;overflow=hidden;rounded=0;fontSize=12;" parent="1" vertex="1">
          <mxGeometry x="150" y="400" width="620" height="120" as="geometry" />
        </mxCell>
        <mxCell id="XbdUIOKITNwZQ8Tn0T4e-44" value="&lt;h1 style=&quot;font-size: 13px&quot;&gt;&lt;font style=&quot;font-size: 17px&quot;&gt;说明&lt;/font&gt;&lt;font style=&quot;font-size: 13px ; font-weight: normal&quot;&gt;（下划线加粗部分引用自 &quot; 金蝶云 WebAPI接口说明书_V4.0.docx &quot;）&lt;/font&gt;&lt;/h1&gt;&lt;p style=&quot;font-size: 13px&quot;&gt;1.生成出库单，由点猫调用金蝶 &lt;b&gt;&lt;u&gt;保存 / 提交&lt;/u&gt;&lt;/b&gt;&lt;u&gt;&lt;b&gt;表单数据接口&lt;/b&gt;&amp;nbsp;&lt;/u&gt;完成。&lt;br&gt;&lt;/p&gt;&lt;p style=&quot;font-size: 13px&quot;&gt;2.定时拉取出库单，由点猫定时调用金蝶 &lt;u&gt;&lt;b&gt;表单数据查询接口&lt;/b&gt; &lt;/u&gt;完成。&lt;/p&gt;&lt;p style=&quot;font-size: 13px&quot;&gt;5.出库结果返回，由点猫调用金蝶？接口完成。（接口说明书上没找到，需要金蝶开发解答）&lt;font color=&quot;#ff0000&quot;&gt;？？？&lt;/font&gt;&lt;/p&gt;&lt;p&gt;&lt;br&gt;&lt;/p&gt;" style="text;html=1;strokeColor=none;fillColor=none;spacing=5;spacingTop=-20;whiteSpace=wrap;overflow=hidden;rounded=0;fontSize=12;" parent="1" vertex="1">
          <mxGeometry x="144" y="990" width="596" height="120" as="geometry" />
        </mxCell>
        <mxCell id="9lwJwIITBBFkzOcBbWbO-1" value="数字代表流程顺序" style="text;html=1;strokeColor=none;fillColor=none;align=center;verticalAlign=middle;whiteSpace=wrap;rounded=0;fontStyle=2" parent="1" vertex="1">
          <mxGeometry x="364" y="100" width="100" height="20" as="geometry" />
        </mxCell>
        <mxCell id="9lwJwIITBBFkzOcBbWbO-2" value="数字代表流程顺序" style="text;html=1;strokeColor=none;fillColor=none;align=center;verticalAlign=middle;whiteSpace=wrap;rounded=0;fontStyle=2" parent="1" vertex="1">
          <mxGeometry x="360" y="670" width="100" height="20" as="geometry" />
        </mxCell>
      </root>
    </mxGraphModel>
  </diagram>
</mxfile>
